STARTFONT 2.1
FONT -Misc-Fixed-Medium-R-Normal--14-130-75-75-C-70-ISO10646-1
SIZE 14 75 75
FONTBOUNDINGBOX 7 14 0 -2

STARTPROPERTIES 24
FONTNAME_REGISTRY ""
FOUNDRY "Misc"
FAMILY_NAME "Fixed"
WEIGHT_NAME "Medium"
SLANT "R"
SETWIDTH_NAME "Normal"
ADD_STYLE_NAME ""
PIXEL_SIZE 14
POINT_SIZE 130
RESOLUTION_X 75
RESOLUTION_Y 75
SPACING "C"
AVERAGE_WIDTH 70
CHARSET_REGISTRY "ISO10646"
CHARSET_ENCODING "1"
COPYRIGHT "Public domain font.  Share and enjoy."
_XMBDFED_INFO "Edited with xmbdfed 4.5."
CAP_HEIGHT 10
X_HEIGHT 7
WEIGHT 10
QUAD_WIDTH 7
DEFAULT_CHAR 0
FONT_DESCENT 2
FONT_ASCENT 12
ENDPROPERTIES

CHARS 103

STARTCHAR char0
ENCODING 0
SWIDTH 960 0
DWIDTH 7 0
BBX 7 14 0 -2
BITMAP
00
B4
84
00
84
84
00
84
84
00
84
B4
00
00
ENDCHAR

STARTCHAR space
ENCODING 32
SWIDTH 960 0
DWIDTH 7 0
BBX 7 14 0 -2
BITMAP
00
00
00
00
00
00
00
00
00
00
00
00
00
00
ENDCHAR

STARTCHAR exclam
ENCODING 33
SWIDTH 960 0
DWIDTH 7 0
BBX 7 14 0 -2
BITMAP
00
00
10
10
10
10
10
10
10
00
10
10
00
00
ENDCHAR

STARTCHAR quotedbl
ENCODING 34
SWIDTH 960 0
DWIDTH 7 0
BBX 7 14 0 -2
BITMAP
00
28
28
28
28
00
00
00
00
00
00
00
00
00
ENDCHAR

STARTCHAR numbersign
ENCODING 35
SWIDTH 960 0
DWIDTH 7 0
BBX 7 14 0 -2
BITMAP
00
00
28
28
28
7C
28
28
7C
28
28
28
00
00
ENDCHAR

STARTCHAR dollar
ENCODING 36
SWIDTH 960 0
DWIDTH 7 0
BBX 7 14 0 -2
BITMAP
00
00
10
78
94
94
50
38
14
94
94
78
10
00
ENDCHAR

STARTCHAR percent
ENCODING 37
SWIDTH 960 0
DWIDTH 7 0
BBX 7 14 0 -2
BITMAP
00
00
64
94
98
70
10
20
38
64
A4
98
00
00
ENDCHAR

STARTCHAR ampersand
ENCODING 38
SWIDTH 960 0
DWIDTH 7 0
BBX 7 14 0 -2
BITMAP
00
00
30
48
48
48
30
64
94
88
98
64
00
00
ENDCHAR

STARTCHAR quotesingle
ENCODING 39
SWIDTH 960 0
DWIDTH 7 0
BBX 7 14 0 -2
BITMAP
00
10
10
10
10
00
00
00
00
00
00
00
00
00
ENDCHAR

STARTCHAR parenleft
ENCODING 40
SWIDTH 960 0
DWIDTH 7 0
BBX 7 14 0 -2
BITMAP
00
04
08
10
10
20
20
20
20
20
10
10
08
04
ENDCHAR

STARTCHAR parenright
ENCODING 41
SWIDTH 960 0
DWIDTH 7 0
BBX 7 14 0 -2
BITMAP
00
40
20
10
10
08
08
08
08
08
10
10
20
40
ENDCHAR

STARTCHAR asterisk
ENCODING 42
SWIDTH 960 0
DWIDTH 7 0
BBX 7 14 0 -2
BITMAP
00
00
00
00
10
54
38
10
38
54
10
00
00
00
ENDCHAR

STARTCHAR plus
ENCODING 43
SWIDTH 960 0
DWIDTH 7 0
BBX 7 14 0 -2
BITMAP
00
00
00
00
10
10
10
7C
10
10
10
00
00
00
ENDCHAR

STARTCHAR comma
ENCODING 44
SWIDTH 960 0
DWIDTH 7 0
BBX 7 14 0 -2
BITMAP
00
00
00
00
00
00
00
00
00
00
30
10
10
20
ENDCHAR

STARTCHAR hyphen
ENCODING 45
SWIDTH 960 0
DWIDTH 7 0
BBX 7 14 0 -2
BITMAP
00
00
00
00
00
00
00
7C
00
00
00
00
00
00
ENDCHAR

STARTCHAR period
ENCODING 46
SWIDTH 960 0
DWIDTH 7 0
BBX 7 14 0 -2
BITMAP
00
00
00
00
00
00
00
00
00
00
10
38
10
00
ENDCHAR

STARTCHAR slash
ENCODING 47
SWIDTH 960 0
DWIDTH 7 0
BBX 7 14 0 -2
BITMAP
00
04
04
08
08
10
10
10
20
20
40
40
80
80
ENDCHAR

STARTCHAR zero
ENCODING 48
SWIDTH 960 0
DWIDTH 7 0
BBX 7 14 0 -2
BITMAP
00
00
30
48
84
84
84
84
84
84
48
30
00
00
ENDCHAR

STARTCHAR one
ENCODING 49
SWIDTH 960 0
DWIDTH 7 0
BBX 7 14 0 -2
BITMAP
00
00
10
30
50
10
10
10
10
10
10
7C
00
00
ENDCHAR

STARTCHAR two
ENCODING 50
SWIDTH 960 0
DWIDTH 7 0
BBX 7 14 0 -2
BITMAP
00
00
78
84
84
04
08
08
10
20
40
FC
00
00
ENDCHAR

STARTCHAR three
ENCODING 51
SWIDTH 960 0
DWIDTH 7 0
BBX 7 14 0 -2
BITMAP
00
00
FC
04
08
10
38
04
04
84
84
78
00
00
ENDCHAR

STARTCHAR four
ENCODING 52
SWIDTH 960 0
DWIDTH 7 0
BBX 7 14 0 -2
BITMAP
00
00
08
18
28
28
48
48
88
FC
08
08
00
00
ENDCHAR

STARTCHAR five
ENCODING 53
SWIDTH 960 0
DWIDTH 7 0
BBX 7 14 0 -2
BITMAP
00
00
FC
80
80
F8
84
04
04
84
84
78
00
00
ENDCHAR

STARTCHAR six
ENCODING 54
SWIDTH 960 0
DWIDTH 7 0
BBX 7 14 0 -2
BITMAP
00
00
38
40
80
80
B8
C4
84
84
84
78
00
00
ENDCHAR

STARTCHAR seven
ENCODING 55
SWIDTH 960 0
DWIDTH 7 0
BBX 7 14 0 -2
BITMAP
00
00
FC
04
08
08
10
10
20
20
40
40
00
00
ENDCHAR

STARTCHAR eight
ENCODING 56
SWIDTH 960 0
DWIDTH 7 0
BBX 7 14 0 -2
BITMAP
00
00
78
84
84
48
30
48
84
84
84
78
00
00
ENDCHAR

STARTCHAR nine
ENCODING 57
SWIDTH 960 0
DWIDTH 7 0
BBX 7 14 0 -2
BITMAP
00
00
78
84
84
84
8C
74
04
84
88
70
00
00
ENDCHAR

STARTCHAR colon
ENCODING 58
SWIDTH 960 0
DWIDTH 7 0
BBX 7 14 0 -2
BITMAP
00
00
00
00
10
38
10
00
00
10
38
10
00
00
ENDCHAR

STARTCHAR semicolon
ENCODING 59
SWIDTH 960 0
DWIDTH 7 0
BBX 7 14 0 -2
BITMAP
00
00
00
00
00
30
30
00
00
30
10
10
20
00
ENDCHAR

STARTCHAR less
ENCODING 60
SWIDTH 960 0
DWIDTH 7 0
BBX 7 14 0 -2
BITMAP
00
00
00
04
08
10
20
40
20
10
08
04
00
00
ENDCHAR

STARTCHAR equal
ENCODING 61
SWIDTH 960 0
DWIDTH 7 0
BBX 7 14 0 -2
BITMAP
00
00
00
00
00
FC
00
00
FC
00
00
00
00
00
ENDCHAR

STARTCHAR greater
ENCODING 62
SWIDTH 960 0
DWIDTH 7 0
BBX 7 14 0 -2
BITMAP
00
00
00
40
20
10
08
04
08
10
20
40
00
00
ENDCHAR

STARTCHAR question
ENCODING 63
SWIDTH 960 0
DWIDTH 7 0
BBX 7 14 0 -2
BITMAP
00
00
78
84
84
08
10
10
10
00
10
10
00
00
ENDCHAR

STARTCHAR at
ENCODING 64
SWIDTH 960 0
DWIDTH 7 0
BBX 7 14 0 -2
BITMAP
00
00
38
44
9C
A4
A4
A4
A4
9C
40
3C
00
00
ENDCHAR

STARTCHAR A
ENCODING 65
SWIDTH 960 0
DWIDTH 7 0
BBX 7 14 0 -2
BITMAP
00
00
30
48
84
84
84
FC
84
84
84
84
00
00
ENDCHAR

STARTCHAR B
ENCODING 66
SWIDTH 960 0
DWIDTH 7 0
BBX 7 14 0 -2
BITMAP
00
00
F0
88
84
88
F0
88
84
84
88
F0
00
00
ENDCHAR

STARTCHAR C
ENCODING 67
SWIDTH 960 0
DWIDTH 7 0
BBX 7 14 0 -2
BITMAP
00
00
78
84
84
80
80
80
80
84
84
78
00
00
ENDCHAR

STARTCHAR D
ENCODING 68
SWIDTH 960 0
DWIDTH 7 0
BBX 7 14 0 -2
BITMAP
00
00
F0
88
84
84
84
84
84
84
88
F0
00
00
ENDCHAR

STARTCHAR E
ENCODING 69
SWIDTH 960 0
DWIDTH 7 0
BBX 7 14 0 -2
BITMAP
00
00
FC
80
80
80
F0
80
80
80
80
FC
00
00
ENDCHAR

STARTCHAR F
ENCODING 70
SWIDTH 960 0
DWIDTH 7 0
BBX 7 14 0 -2
BITMAP
00
00
FC
80
80
80
F0
80
80
80
80
80
00
00
ENDCHAR

STARTCHAR G
ENCODING 71
SWIDTH 960 0
DWIDTH 7 0
BBX 7 14 0 -2
BITMAP
00
00
78
84
84
80
80
9C
84
84
8C
74
00
00
ENDCHAR

STARTCHAR H
ENCODING 72
SWIDTH 960 0
DWIDTH 7 0
BBX 7 14 0 -2
BITMAP
00
00
84
84
84
84
FC
84
84
84
84
84
00
00
ENDCHAR

STARTCHAR I
ENCODING 73
SWIDTH 960 0
DWIDTH 7 0
BBX 7 14 0 -2
BITMAP
00
00
7C
10
10
10
10
10
10
10
10
7C
00
00
ENDCHAR

STARTCHAR J
ENCODING 74
SWIDTH 960 0
DWIDTH 7 0
BBX 7 14 0 -2
BITMAP
00
00
1C
08
08
08
08
08
08
88
88
70
00
00
ENDCHAR

STARTCHAR K
ENCODING 75
SWIDTH 960 0
DWIDTH 7 0
BBX 7 14 0 -2
BITMAP
00
00
84
88
90
A0
C0
A0
90
88
84
84
00
00
ENDCHAR

STARTCHAR L
ENCODING 76
SWIDTH 960 0
DWIDTH 7 0
BBX 7 14 0 -2
BITMAP
00
00
80
80
80
80
80
80
80
80
80
FC
00
00
ENDCHAR

STARTCHAR M
ENCODING 77
SWIDTH 960 0
DWIDTH 7 0
BBX 7 14 0 -2
BITMAP
00
00
84
CC
CC
B4
B4
84
84
84
84
84
00
00
ENDCHAR

STARTCHAR N
ENCODING 78
SWIDTH 960 0
DWIDTH 7 0
BBX 7 14 0 -2
BITMAP
00
00
84
84
C4
C4
A4
94
8C
8C
84
84
00
00
ENDCHAR

STARTCHAR O
ENCODING 79
SWIDTH 960 0
DWIDTH 7 0
BBX 7 14 0 -2
BITMAP
00
00
78
84
84
84
84
84
84
84
84
78
00
00
ENDCHAR

STARTCHAR P
ENCODING 80
SWIDTH 960 0
DWIDTH 7 0
BBX 7 14 0 -2
BITMAP
00
00
F8
84
84
84
84
F8
80
80
80
80
00
00
ENDCHAR

STARTCHAR Q
ENCODING 81
SWIDTH 960 0
DWIDTH 7 0
BBX 7 14 0 -2
BITMAP
00
00
78
84
84
84
84
84
E4
94
8C
78
08
04
ENDCHAR

STARTCHAR R
ENCODING 82
SWIDTH 960 0
DWIDTH 7 0
BBX 7 14 0 -2
BITMAP
00
00
F8
84
84
84
84
F8
90
88
84
84
00
00
ENDCHAR

STARTCHAR S
ENCODING 83
SWIDTH 960 0
DWIDTH 7 0
BBX 7 14 0 -2
BITMAP
00
00
78
84
84
80
60
18
04
84
84
78
00
00
ENDCHAR

STARTCHAR T
ENCODING 84
SWIDTH 960 0
DWIDTH 7 0
BBX 7 14 0 -2
BITMAP
00
00
FE
10
10
10
10
10
10
10
10
10
00
00
ENDCHAR

STARTCHAR U
ENCODING 85
SWIDTH 960 0
DWIDTH 7 0
BBX 7 14 0 -2
BITMAP
00
00
84
84
84
84
84
84
84
84
84
78
00
00
ENDCHAR

STARTCHAR V
ENCODING 86
SWIDTH 960 0
DWIDTH 7 0
BBX 7 14 0 -2
BITMAP
00
00
84
84
84
84
48
48
48
30
30
30
00
00
ENDCHAR

STARTCHAR W
ENCODING 87
SWIDTH 960 0
DWIDTH 7 0
BBX 7 14 0 -2
BITMAP
00
00
44
44
44
44
44
44
54
54
54
28
00
00
ENDCHAR

STARTCHAR X
ENCODING 88
SWIDTH 960 0
DWIDTH 7 0
BBX 7 14 0 -2
BITMAP
00
00
84
84
48
48
30
30
48
48
84
84
00
00
ENDCHAR

STARTCHAR Y
ENCODING 89
SWIDTH 960 0
DWIDTH 7 0
BBX 7 14 0 -2
BITMAP
00
00
44
44
44
28
28
10
10
10
10
10
00
00
ENDCHAR

STARTCHAR Z
ENCODING 90
SWIDTH 960 0
DWIDTH 7 0
BBX 7 14 0 -2
BITMAP
00
00
FC
04
08
10
10
20
40
40
80
FC
00
00
ENDCHAR

STARTCHAR bracketleft
ENCODING 91
SWIDTH 960 0
DWIDTH 7 0
BBX 7 14 0 -2
BITMAP
00
3C
20
20
20
20
20
20
20
20
20
20
20
3C
ENDCHAR

STARTCHAR backslash
ENCODING 92
SWIDTH 960 0
DWIDTH 7 0
BBX 7 14 0 -2
BITMAP
00
80
80
40
40
20
20
20
10
10
08
08
04
04
ENDCHAR

STARTCHAR bracketright
ENCODING 93
SWIDTH 960 0
DWIDTH 7 0
BBX 7 14 0 -2
BITMAP
00
78
08
08
08
08
08
08
08
08
08
08
08
78
ENDCHAR

STARTCHAR asciicircum
ENCODING 94
SWIDTH 960 0
DWIDTH 7 0
BBX 7 14 0 -2
BITMAP
00
30
48
84
00
00
00
00
00
00
00
00
00
00
ENDCHAR

STARTCHAR underscore
ENCODING 95
SWIDTH 960 0
DWIDTH 7 0
BBX 7 14 0 -2
BITMAP
00
00
00
00
00
00
00
00
00
00
00
00
00
FC
ENDCHAR

STARTCHAR grave
ENCODING 96
SWIDTH 960 0
DWIDTH 7 0
BBX 7 14 0 -2
BITMAP
00
20
10
08
00
00
00
00
00
00
00
00
00
00
ENDCHAR

STARTCHAR a
ENCODING 97
SWIDTH 960 0
DWIDTH 7 0
BBX 7 14 0 -2
BITMAP
00
00
00
00
00
78
84
04
7C
84
84
7C
00
00
ENDCHAR

STARTCHAR b
ENCODING 98
SWIDTH 960 0
DWIDTH 7 0
BBX 7 14 0 -2
BITMAP
00
00
80
80
80
B8
C4
84
84
84
C4
B8
00
00
ENDCHAR

STARTCHAR c
ENCODING 99
SWIDTH 960 0
DWIDTH 7 0
BBX 7 14 0 -2
BITMAP
00
00
00
00
00
78
84
80
80
80
84
78
00
00
ENDCHAR

STARTCHAR d
ENCODING 100
SWIDTH 960 0
DWIDTH 7 0
BBX 7 14 0 -2
BITMAP
00
00
04
04
04
74
8C
84
84
84
8C
74
00
00
ENDCHAR

STARTCHAR e
ENCODING 101
SWIDTH 960 0
DWIDTH 7 0
BBX 7 14 0 -2
BITMAP
00
00
00
00
00
78
84
84
FC
80
84
78
00
00
ENDCHAR

STARTCHAR f
ENCODING 102
SWIDTH 960 0
DWIDTH 7 0
BBX 7 14 0 -2
BITMAP
00
00
18
24
20
20
F8
20
20
20
20
20
00
00
ENDCHAR

STARTCHAR g
ENCODING 103
SWIDTH 960 0
DWIDTH 7 0
BBX 7 14 0 -2
BITMAP
00
00
00
00
00
74
88
88
88
70
40
B8
84
78
ENDCHAR

STARTCHAR h
ENCODING 104
SWIDTH 960 0
DWIDTH 7 0
BBX 7 14 0 -2
BITMAP
00
00
80
80
80
B8
C4
84
84
84
84
84
00
00
ENDCHAR

STARTCHAR i
ENCODING 105
SWIDTH 960 0
DWIDTH 7 0
BBX 7 14 0 -2
BITMAP
00
00
10
10
00
30
10
10
10
10
10
7C
00
00
ENDCHAR

STARTCHAR j
ENCODING 106
SWIDTH 960 0
DWIDTH 7 0
BBX 7 14 0 -2
BITMAP
00
00
04
04
00
0C
04
04
04
04
04
44
44
38
ENDCHAR

STARTCHAR k
ENCODING 107
SWIDTH 960 0
DWIDTH 7 0
BBX 7 14 0 -2
BITMAP
00
00
80
80
80
88
90
A0
E0
90
88
84
00
00
ENDCHAR

STARTCHAR l
ENCODING 108
SWIDTH 960 0
DWIDTH 7 0
BBX 7 14 0 -2
BITMAP
00
00
30
10
10
10
10
10
10
10
10
7C
00
00
ENDCHAR

STARTCHAR m
ENCODING 109
SWIDTH 960 0
DWIDTH 7 0
BBX 7 14 0 -2
BITMAP
00
00
00
00
00
68
54
54
54
54
54
44
00
00
ENDCHAR

STARTCHAR n
ENCODING 110
SWIDTH 960 0
DWIDTH 7 0
BBX 7 14 0 -2
BITMAP
00
00
00
00
00
B8
C4
84
84
84
84
84
00
00
ENDCHAR

STARTCHAR o
ENCODING 111
SWIDTH 960 0
DWIDTH 7 0
BBX 7 14 0 -2
BITMAP
00
00
00
00
00
78
84
84
84
84
84
78
00
00
ENDCHAR

STARTCHAR p
ENCODING 112
SWIDTH 960 0
DWIDTH 7 0
BBX 7 14 0 -2
BITMAP
00
00
00
00
00
B8
C4
84
84
84
C4
B8
80
80
ENDCHAR

STARTCHAR q
ENCODING 113
SWIDTH 960 0
DWIDTH 7 0
BBX 7 14 0 -2
BITMAP
00
00
00
00
00
74
8C
84
84
84
8C
74
04
04
ENDCHAR

STARTCHAR r
ENCODING 114
SWIDTH 960 0
DWIDTH 7 0
BBX 7 14 0 -2
BITMAP
00
00
00
00
00
B8
C4
84
80
80
80
80
00
00
ENDCHAR

STARTCHAR s
ENCODING 115
SWIDTH 960 0
DWIDTH 7 0
BBX 7 14 0 -2
BITMAP
00
00
00
00
00
78
84
40
30
08
84
78
00
00
ENDCHAR

STARTCHAR t
ENCODING 116
SWIDTH 960 0
DWIDTH 7 0
BBX 7 14 0 -2
BITMAP
00
00
20
20
20
F8
20
20
20
20
24
18
00
00
ENDCHAR

STARTCHAR u
ENCODING 117
SWIDTH 960 0
DWIDTH 7 0
BBX 7 14 0 -2
BITMAP
00
00
00
00
00
84
84
84
84
84
8C
74
00
00
ENDCHAR

STARTCHAR v
ENCODING 118
SWIDTH 960 0
DWIDTH 7 0
BBX 7 14 0 -2
BITMAP
00
00
00
00
00
44
44
44
28
28
10
10
00
00
ENDCHAR

STARTCHAR w
ENCODING 119
SWIDTH 960 0
DWIDTH 7 0
BBX 7 14 0 -2
BITMAP
00
00
00
00
00
44
44
54
54
54
54
28
00
00
ENDCHAR

STARTCHAR x
ENCODING 120
SWIDTH 960 0
DWIDTH 7 0
BBX 7 14 0 -2
BITMAP
00
00
00
00
00
84
84
48
30
48
84
84
00
00
ENDCHAR

STARTCHAR y
ENCODING 121
SWIDTH 960 0
DWIDTH 7 0
BBX 7 14 0 -2
BITMAP
00
00
00
00
00
84
84
84
84
8C
74
04
84
78
ENDCHAR

STARTCHAR z
ENCODING 122
SWIDTH 960 0
DWIDTH 7 0
BBX 7 14 0 -2
BITMAP
00
00
00
00
00
FC
08
10
20
20
40
FC
00
00
ENDCHAR

STARTCHAR braceleft
ENCODING 123
SWIDTH 960 0
DWIDTH 7 0
BBX 7 14 0 -2
BITMAP
00
0C
10
10
10
10
10
20
10
10
10
10
10
0C
ENDCHAR

STARTCHAR bar
ENCODING 124
SWIDTH 960 0
DWIDTH 7 0
BBX 7 14 0 -2
BITMAP
00
10
10
10
10
10
10
10
10
10
10
10
10
10
ENDCHAR

STARTCHAR braceright
ENCODING 125
SWIDTH 960 0
DWIDTH 7 0
BBX 7 14 0 -2
BITMAP
00
60
10
10
10
10
10
08
10
10
10
10
10
60
ENDCHAR

STARTCHAR asciitilde
ENCODING 126
SWIDTH 960 0
DWIDTH 7 0
BBX 7 14 0 -2
BITMAP
00
40
A4
94
08
00
00
00
00
00
00
00
00
00
ENDCHAR

STARTCHAR cursor
ENCODING 127
SWIDTH 960 0
DWIDTH 7 0
BBX 7 14 0 -2
BITMAP
00
00
40
60
70
78
7C
7E
7C
78
70
60
40
00
ENDCHAR

STARTCHAR bar1
ENCODING 128
SWIDTH 960 0
DWIDTH 7 0
BBX 7 14 0 -2
BITMAP
00
00
40
40
40
40
40
40
40
40
40
40
40
00
ENDCHAR

STARTCHAR bar2
ENCODING 129
SWIDTH 960 0
DWIDTH 7 0
BBX 7 14 0 -2
BITMAP
00
00
60
60
60
60
60
60
60
60
60
60
60
00
ENDCHAR

STARTCHAR bar3
ENCODING 130
SWIDTH 960 0
DWIDTH 7 0
BBX 7 14 0 -2
BITMAP
00
00
70
70
70
70
70
70
70
70
70
70
70
00
ENDCHAR

STARTCHAR bar4
ENCODING 131
SWIDTH 960 0
DWIDTH 7 0
BBX 7 14 0 -2
BITMAP
00
00
78
78
78
78
78
78
78
78
78
78
78
00
ENDCHAR

STARTCHAR bar5
ENCODING 132
SWIDTH 960 0
DWIDTH 7 0
BBX 7 14 0 -2
BITMAP
00
00
7C
7C
7C
7C
7C
7C
7C
7C
7C
7C
7C
00
ENDCHAR

STARTCHAR bar6
ENCODING 133
SWIDTH 960 0
DWIDTH 7 0
BBX 7 14 0 -2
BITMAP
00
00
7E
7E
7E
7E
7E
7E
7E
7E
7E
7E
7E
00
ENDCHAR

STARTCHAR bar7
ENCODING 134
SWIDTH 960 0
DWIDTH 7 0
BBX 7 14 0 -2
BITMAP
00
00
FE
FE
FE
FE
FE
FE
FE
FE
FE
FE
FE
00
ENDCHAR

ENDFONT
